<?xml version="1.0" encoding="utf-8"?>
<!-- Generator: Adobe Illustrator 25.2.0, SVG Export Plug-In . SVG Version: 6.00 Build 0)  -->
<svg version="1.1" id="Capa_1" xmlns="http://www.w3.org/2000/svg" xmlns:xlink="http://www.w3.org/1999/xlink" x="0px" y="0px"
	 viewBox="0 0 841.89 595.28" style="enable-background:new 0 0 841.89 595.28;" xml:space="preserve">
<style type="text/css">
	.st0{fill:#1A355F;}
	.st1{fill:#00B0AC;}
</style>
<g>
	<g>
		<path class="st0" d="M448.87,271.5h-10.09v-0.15c0-1.98-1.61-3.59-3.59-3.59c-1.98,0-3.59,1.61-3.59,3.59v0.15h-20.75v-0.15
			c0-1.98-1.61-3.59-3.59-3.59c-1.98,0-3.59,1.61-3.59,3.59v0.15h-10.04c-1.18,0-2.14,0.96-2.14,2.15v51.51
			c0,1.18,0.96,2.14,2.14,2.14h55.26c1.18,0,2.14-0.96,2.14-2.14v-51.51C451.02,272.46,450.06,271.5,448.87,271.5z M393.62,284.56
			h55.2l0,3.64h-55.2L393.62,284.56z M435.19,269.96c0.77,0,1.39,0.62,1.39,1.39v5.17h-2.78v-5.17
			C433.8,270.58,434.42,269.96,435.19,269.96z M407.25,269.96c0.77,0,1.39,0.62,1.39,1.39v5.17h-2.78v-5.17
			C405.86,270.58,406.48,269.96,407.25,269.96z M403.65,273.71v2.81h-0.79c-0.61,0-1.1,0.49-1.1,1.1c0,0.61,0.49,1.1,1.1,1.1h8.82
			c0.61,0,1.1-0.49,1.1-1.1c0-0.61-0.49-1.1-1.1-1.1h-0.84v-2.81h20.75v2.81h-0.79c-0.61,0-1.1,0.49-1.1,1.1
			c0,0.61,0.49,1.1,1.1,1.1h8.82c0.61,0,1.1-0.49,1.1-1.1c0-0.61-0.49-1.1-1.1-1.1h-0.84v-2.81l10.03-0.06l0.01,8.71h-55.2
			l-0.01-8.65H403.65z M393.67,325.16l-0.04-34.75h55.2l0.04,34.69L393.67,325.16z"/>
		<path class="st0" d="M404.71,320.34h-6.3l0-6.21c0-0.61-0.49-1.1-1.1-1.1s-1.1,0.49-1.1,1.1l0,7.31c0,0.29,0.12,0.57,0.32,0.78
			c0.21,0.21,0.49,0.32,0.78,0.32h7.4c0.61,0,1.1-0.49,1.1-1.1S405.32,320.34,404.71,320.34z"/>
		<path class="st0" d="M445.17,295.5c-0.61,0-1.1,0.49-1.1,1.1l0,7.31c0,0.61,0.49,1.1,1.1,1.1c0.61,0,1.1-0.49,1.1-1.1l0-7.31
			C446.28,295.99,445.78,295.5,445.17,295.5z"/>
	</g>
	<g>
		<g>
			<path class="st1" d="M411.46,300.46h-6.49c-1.02,0-1.84-0.82-1.84-1.84c0-1.02,0.82-1.84,1.84-1.84h6.49
				c1.02,0,1.84,0.82,1.84,1.84C413.3,299.64,412.47,300.46,411.46,300.46z"/>
		</g>
		<g>
			<path class="st1" d="M424.49,300.46H418c-1.02,0-1.84-0.82-1.84-1.84c0-1.02,0.82-1.84,1.84-1.84h6.49
				c1.02,0,1.84,0.82,1.84,1.84C426.33,299.64,425.5,300.46,424.49,300.46z"/>
		</g>
		<g>
			<path class="st1" d="M437.52,300.46h-6.49c-1.02,0-1.84-0.82-1.84-1.84c0-1.02,0.82-1.84,1.84-1.84h6.49
				c1.02,0,1.84,0.82,1.84,1.84C439.36,299.64,438.53,300.46,437.52,300.46z"/>
		</g>
		<g>
			<path class="st1" d="M411.46,307.77h-6.49c-1.02,0-1.84-0.82-1.84-1.84c0-1.02,0.82-1.84,1.84-1.84h6.49
				c1.02,0,1.84,0.82,1.84,1.84C413.3,306.94,412.47,307.77,411.46,307.77z"/>
		</g>
		<g>
			<path class="st1" d="M424.49,307.77H418c-1.02,0-1.84-0.82-1.84-1.84c0-1.02,0.82-1.84,1.84-1.84h6.49
				c1.02,0,1.84,0.82,1.84,1.84C426.33,306.94,425.5,307.77,424.49,307.77z"/>
		</g>
		<g>
			<path class="st1" d="M437.52,307.77h-6.49c-1.02,0-1.84-0.82-1.84-1.84c0-1.02,0.82-1.84,1.84-1.84h6.49
				c1.02,0,1.84,0.82,1.84,1.84C439.36,306.94,438.53,307.77,437.52,307.77z"/>
		</g>
		<g>
			<path class="st1" d="M411.46,315.07h-6.49c-1.02,0-1.84-0.82-1.84-1.84c0-1.02,0.82-1.84,1.84-1.84h6.49
				c1.02,0,1.84,0.82,1.84,1.84C413.3,314.25,412.47,315.07,411.46,315.07z"/>
		</g>
		<g>
			<path class="st1" d="M424.49,315.07H418c-1.02,0-1.84-0.82-1.84-1.84c0-1.02,0.82-1.84,1.84-1.84h6.49
				c1.02,0,1.84,0.82,1.84,1.84C426.33,314.25,425.5,315.07,424.49,315.07z"/>
		</g>
		<g>
			<path class="st1" d="M437.52,315.07h-6.49c-1.02,0-1.84-0.82-1.84-1.84c0-1.02,0.82-1.84,1.84-1.84h6.49
				c1.02,0,1.84,0.82,1.84,1.84C439.36,314.25,438.53,315.07,437.52,315.07z"/>
		</g>
	</g>
</g>
</svg>
