<?xml version="1.0" encoding="utf-8"?>
<!-- Generator: Adobe Illustrator 25.2.0, SVG Export Plug-In . SVG Version: 6.00 Build 0)  -->
<svg version="1.1" id="Capa_1" xmlns="http://www.w3.org/2000/svg" xmlns:xlink="http://www.w3.org/1999/xlink" x="0px" y="0px"
	 viewBox="0 0 841.89 595.28" style="enable-background:new 0 0 841.89 595.28;" xml:space="preserve">
<style type="text/css">
	.st0{fill:#00B0AC;}
	.st1{fill:#1A355F;}
</style>
<g>
	<path class="st0" d="M446.58,278.04l-5.35-5.35c-0.79-0.79-2.06-0.79-2.85,0l-22.58,22.58l-5.22-5.22
		c-0.38-0.38-0.89-0.59-1.43-0.59s-1.05,0.21-1.43,0.59l-5.35,5.35c-0.79,0.79-0.79,2.06,0,2.85l6.57,6.57
		c0.02,0.02,0.05,0.05,0.07,0.07l5.35,5.35c0.38,0.38,0.89,0.59,1.43,0.59c0.53,0,1.05-0.21,1.43-0.59l29.36-29.36
		c0.38-0.38,0.59-0.89,0.59-1.42S446.96,278.42,446.58,278.04z"/>
	<path class="st1" d="M438.63,291.8v25.98h-37.94v-37.94h27.58l5.37-5.37H398c-1.48,0-2.69,1.2-2.69,2.69v43.32
		c0,1.48,1.2,2.69,2.69,2.69h43.32c1.48,0,2.69-1.2,2.69-2.69v-34.04L438.63,291.8z"/>
</g>
</svg>
