<?xml version="1.0" encoding="utf-8"?>
<!-- Generator: Adobe Illustrator 25.2.0, SVG Export Plug-In . SVG Version: 6.00 Build 0)  -->
<svg version="1.1" id="Capa_1" xmlns="http://www.w3.org/2000/svg" xmlns:xlink="http://www.w3.org/1999/xlink" x="0px" y="0px"
	 viewBox="0 0 841.89 595.28" style="enable-background:new 0 0 841.89 595.28;" xml:space="preserve">
<style type="text/css">
	.st0{fill:#1A355F;}
	.st1{fill:#0FAFAB;}
</style>
<g>
	<g>
		<path class="st0" d="M454.95,271.73h-46.38c-1.31,0-2.38,1.07-2.38,2.39v1.97c-0.74-0.18-1.68-0.33-2.77-0.33
			c-2.69,0-6.31,3.44-7.19,4.32l-10.4,7.49c-0.55,0.4-0.67,1.16-0.28,1.71c0.24,0.33,0.62,0.51,1,0.51c0.25,0,0.5-0.08,0.72-0.23
			l10.48-7.55c0.05-0.04,0.11-0.08,0.15-0.13c1.51-1.52,4.22-3.66,5.52-3.66c1.2,0,2.16,0.23,2.77,0.42v20.14l-2.99,1.47
			c-0.61,0.3-0.86,1.04-0.56,1.64c0.3,0.61,1.03,0.86,1.64,0.56l18.43-9.09c2.1-1.03,4.64-0.3,5.9,1.69
			c1.21,1.91,0.88,4.42-0.78,5.95l-1.58,1.46c-2.53,2.34-5.65,3.98-9,4.73l-1.53,0.34c-0.21,0.05-0.41,0.15-0.57,0.3l-4.92,4.6
			c-3.61,3.38-8.31,5.33-13.24,5.48l-10.56,0.33c-0.68,0.02-1.21,0.59-1.19,1.27c0.02,0.67,0.57,1.19,1.23,1.19
			c0.01,0,0.03,0,0.04,0l10.56-0.33c3.84-0.12,7.54-1.23,10.81-3.16c0.61,2.57,2.52,4.19,5.3,4.43c0.18,0.02,0.36,0.02,0.54,0.02
			c1.61,0,3.03-0.65,4.18-1.87c0.73,1.78,2.33,3.52,5.48,3.52c2.58,0,4.25-1.46,5.29-3.4c0.72,0.45,1.66,0.82,2.89,0.92
			c0.18,0.02,0.37,0.02,0.55,0.02c1.35,0,2.57-0.45,3.62-1.33c2.86-2.42,3.4-7.22,3.48-8.16l0.01-0.14h15.72
			c1.31,0,2.38-1.07,2.38-2.39v-34.72C457.33,272.81,456.26,271.73,454.95,271.73z M454.87,274.12l0.01,4.03h-46.3l-0.01-3.96
			L454.87,274.12z M408.59,280.61h46.3l0.01,6.46h-46.29L408.59,280.61z M413.41,319.2c-1.99-0.17-3.08-1.29-3.24-3.34
			c0-0.05-0.03-0.08-0.04-0.13c0.62-0.47,1.23-0.97,1.8-1.51l3.19-2.99h2.74l-0.38,4.64c-0.01,0.01-0.02,0.02-0.02,0.03
			C416.05,319.42,414.07,319.25,413.41,319.2z M423.4,320.86c-3.35,0-3.56-3.01-3.57-3.5l0.51-6.12h7.43v1.99
			C427.76,313.55,427.71,320.86,423.4,320.86z M434.16,317.66c-0.68,0.57-1.45,0.81-2.37,0.74c-0.92-0.08-1.63-0.36-2.16-0.84
			c0.42-1.51,0.59-3.06,0.59-4.32v-1.99h6.55C436.61,312.97,435.89,316.19,434.16,317.66z M420.54,308.78c2.73-1,5.25-2.53,7.4-4.52
			l1.58-1.46c2.53-2.34,3.03-6.15,1.19-9.06c-1.93-3.06-5.83-4.17-9.06-2.58l-12.99,6.41l-0.02-8.05h46.29l0.04,19.26H420.54z"/>
		<path class="st0" d="M451.23,298.89c-0.68,0-1.23,0.55-1.23,1.23v3.76h-3.82c-0.68,0-1.23,0.55-1.23,1.23
			c0,0.68,0.55,1.23,1.23,1.23h5.05c0.68,0,1.23-0.55,1.23-1.23v-4.98C452.46,299.44,451.91,298.89,451.23,298.89z"/>
	</g>
	<path class="st1" d="M451.23,285.06h-38.93c-0.68,0-1.23-0.55-1.23-1.23s0.55-1.23,1.23-1.23h38.93c0.68,0,1.23,0.55,1.23,1.23
		S451.91,285.06,451.23,285.06z"/>
</g>
</svg>
