<?xml version="1.0" encoding="utf-8"?>
<!-- Generator: Adobe Illustrator 25.2.0, SVG Export Plug-In . SVG Version: 6.00 Build 0)  -->
<svg version="1.1" id="Capa_1" xmlns="http://www.w3.org/2000/svg" xmlns:xlink="http://www.w3.org/1999/xlink" x="0px" y="0px"
	 viewBox="0 0 841.89 595.28" style="enable-background:new 0 0 841.89 595.28;" xml:space="preserve">
<style type="text/css">
	.st0{fill:#1A355F;}
	.st1{fill:#0FAFAB;}
</style>
<g>
	<g>
		<path class="st0" d="M437.5,324.19h7.2c0.29,0,0.57-0.12,0.77-0.32c0.21-0.21,0.32-0.48,0.32-0.77l0-7.26c0-0.6-0.49-1.1-1.1-1.1
			c-0.6,0-1.1,0.49-1.1,1.1l0,6.17h-6.11c-0.6,0-1.1,0.49-1.1,1.1S436.9,324.19,437.5,324.19z"/>
		<path class="st0" d="M447.96,273.79h-10.74v-5.17c0-1.18-0.95-2.13-2.11-2.13h-40.6c-1.16,0-2.11,0.96-2.11,2.13v50.51
			c0,1.18,0.95,2.13,2.11,2.13h10.76v5.17c0,1.18,0.96,2.13,2.13,2.13h40.56c1.18,0,2.13-0.96,2.13-2.13v-50.51
			C450.09,274.75,449.14,273.79,447.96,273.79z M405.27,287.81h-4.63v-8.33h4.63V287.81z M405.27,302.42h-4.63v-8.33h4.63V302.42z
			 M405.27,275.92v1.37h-5.73c-0.6,0-1.1,0.49-1.1,1.1v10.52c0,0.6,0.49,1.1,1.1,1.1h5.73v1.9h-5.73c-0.6,0-1.1,0.49-1.1,1.1v10.52
			c0,0.6,0.49,1.1,1.1,1.1h5.73v14.47l-10.68,0.05l-0.08-50.45l40.52-0.06v5.17H407.4C406.23,273.79,405.27,274.75,405.27,275.92z
			 M447.9,326.38l-40.44,0.06l-0.06-50.45l40.5-0.06V326.38z"/>
		<path class="st0" d="M412.42,292.2h10.3c0.6,0,1.1-0.49,1.1-1.1v-10.52c0-0.6-0.49-1.1-1.1-1.1h-10.3c-0.6,0-1.1,0.49-1.1,1.1
			v10.52C411.32,291.7,411.81,292.2,412.42,292.2z M413.51,281.68h8.11V290h-8.11V281.68z"/>
		<path class="st0" d="M419.39,283.37l-2.56,2.62l-1.08-1.1c-0.42-0.43-1.12-0.44-1.55-0.02c-0.43,0.42-0.44,1.12-0.02,1.55
			l1.86,1.9c0.21,0.21,0.49,0.33,0.78,0.33s0.58-0.12,0.78-0.33l3.35-3.42c0.42-0.43,0.42-1.13-0.02-1.55
			C420.5,282.93,419.81,282.93,419.39,283.37z"/>
		<path class="st0" d="M412.42,307.53h10.3c0.6,0,1.1-0.49,1.1-1.1v-10.52c0-0.6-0.49-1.1-1.1-1.1h-10.3c-0.6,0-1.1,0.49-1.1,1.1
			v10.52C411.32,307.04,411.81,307.53,412.42,307.53z M413.51,297.02h8.11v8.33h-8.11V297.02z"/>
		<path class="st0" d="M419.39,298.7l-2.56,2.62l-1.08-1.1c-0.42-0.43-1.12-0.44-1.55-0.02c-0.43,0.42-0.44,1.12-0.02,1.55l1.86,1.9
			c0.21,0.21,0.49,0.33,0.78,0.33s0.58-0.12,0.78-0.33l3.35-3.42c0.42-0.43,0.42-1.13-0.02-1.55
			C420.5,298.26,419.81,298.27,419.39,298.7z"/>
		<path class="st0" d="M412.42,322.87h10.3c0.6,0,1.1-0.49,1.1-1.1v-10.52c0-0.6-0.49-1.1-1.1-1.1h-10.3c-0.6,0-1.1,0.49-1.1,1.1
			v10.52C411.32,322.38,411.81,322.87,412.42,322.87z M413.51,312.35h8.11v8.33h-8.11V312.35z"/>
	</g>
	<path class="st1" d="M427.21,284.29h15.74c0.6,0,1.1-0.49,1.1-1.1c0-0.6-0.49-1.1-1.1-1.1h-15.74c-0.6,0-1.1,0.49-1.1,1.1
		C426.11,283.79,426.6,284.29,427.21,284.29z M427.49,285.6c-0.6,0-1.1,0.49-1.1,1.1s0.49,1.1,1.1,1.1h10.01c0.6,0,1.1-0.49,1.1-1.1
		s-0.49-1.1-1.1-1.1H427.49z M442.95,297.43h-15.74c-0.6,0-1.1,0.49-1.1,1.1c0,0.6,0.49,1.1,1.1,1.1h15.74c0.6,0,1.1-0.49,1.1-1.1
		C444.04,297.92,443.55,297.43,442.95,297.43z M437.51,300.94h-10.01c-0.6,0-1.1,0.49-1.1,1.1s0.49,1.1,1.1,1.1h10.01
		c0.6,0,1.1-0.49,1.1-1.1S438.11,300.94,437.51,300.94z M433.81,312.77h-6.6c-0.6,0-1.1,0.49-1.1,1.1c0,0.6,0.49,1.1,1.1,1.1h6.6
		c0.6,0,1.1-0.49,1.1-1.1C434.91,313.26,434.42,312.77,433.81,312.77z"/>
</g>
</svg>
