<?xml version="1.0" encoding="utf-8"?>
<!-- Generator: Adobe Illustrator 25.2.0, SVG Export Plug-In . SVG Version: 6.00 Build 0)  -->
<svg version="1.1" id="Capa_1" xmlns="http://www.w3.org/2000/svg" xmlns:xlink="http://www.w3.org/1999/xlink" x="0px" y="0px"
	 viewBox="0 0 841.89 595.28" style="enable-background:new 0 0 841.89 595.28;" xml:space="preserve">
<style type="text/css">
	.st0{fill:#00B0AC;}
</style>
<g id="XMLID_182_">
	<path id="XMLID_332_" class="st0" d="M439.02,289.71c0.34-1.42,0.52-2.87,0.52-4.33c0-10.09-8.21-18.3-18.3-18.3
		c-10.09,0-18.3,8.21-18.3,18.3c0,1.45,0.17,2.91,0.52,4.33c0.49,2.97,1.16,5.36,2,7.12c1.8,3.78,9.36,16.24,12.84,21.92
		c-4.7,0.6-6.88,2.62-6.88,4.52c0,2.26,3.07,4.7,9.82,4.7c6.75,0,9.82-2.44,9.82-4.7c0-1.9-2.18-3.92-6.88-4.52
		c3.47-5.68,11.04-18.15,12.84-21.92C437.86,295.07,438.53,292.67,439.02,289.71z M428.23,323.27c-0.19,0.54-2.55,1.88-6.99,1.88
		c-4.49,0-6.85-1.37-6.99-1.86c0.13-0.47,2.06-1.62,5.7-1.85c0.04,0.07,0.08,0.12,0.09,0.15c0.26,0.42,0.71,0.67,1.2,0.67
		c0.49,0,0.95-0.25,1.2-0.67c0.02-0.03,0.05-0.08,0.09-0.15C426.13,321.66,428.06,322.79,428.23,323.27z M408.01,295.61
		c-0.72-1.5-1.33-3.72-1.77-6.41c-0.01-0.04-0.01-0.07-0.02-0.11c-0.3-1.21-0.45-2.46-0.45-3.71c0-8.53,6.94-15.47,15.47-15.47
		c8.53,0,15.47,6.94,15.47,15.47c0,1.25-0.15,2.49-0.45,3.71c-0.01,0.04-0.02,0.07-0.02,0.11c-0.44,2.69-1.05,4.91-1.77,6.41
		c-1.82,3.81-10.1,17.42-13.23,22.53C418.11,313.03,409.83,299.42,408.01,295.61z"/>
	<path id="XMLID_328_" class="st0" d="M421.24,275.04c-5.41,0-9.82,4.4-9.82,9.82c0,5.41,4.4,9.82,9.82,9.82
		c5.41,0,9.82-4.4,9.82-9.82C431.06,279.44,426.66,275.04,421.24,275.04z M414.25,284.85c0-3.86,3.14-6.99,6.99-6.99
		c3.86,0,6.99,3.14,6.99,6.99c0,3.86-3.14,6.99-6.99,6.99C417.39,291.85,414.25,288.71,414.25,284.85z"/>
</g>
</svg>
