<?xml version="1.0" encoding="utf-8"?>
<!-- Generator: Adobe Illustrator 25.2.0, SVG Export Plug-In . SVG Version: 6.00 Build 0)  -->
<svg version="1.1" id="Capa_1" xmlns="http://www.w3.org/2000/svg" xmlns:xlink="http://www.w3.org/1999/xlink" x="0px" y="0px"
	 viewBox="0 0 841.89 595.28" style="enable-background:new 0 0 841.89 595.28;" xml:space="preserve">
<style type="text/css">
	.st0{fill:#FFFFFF;}
	.st1{fill:#00B0AC;}
</style>
<g>
	<g>
		<g>
			<g>
				<path class="st0" d="M416.45,293.12c0-0.47,0.35-0.78,0.82-0.78c0.47,0,0.81,0.31,0.81,0.78v4.72c0,0.04,0.02,0.06,0.07,0.06
					h2.69c0.5,0,0.82,0.27,0.82,0.65c0,0.39-0.32,0.66-0.82,0.66h-3.57c-0.5,0-0.82-0.3-0.82-0.74V293.12z"/>
				<path class="st0" d="M422.27,298.3l2.05-5.1c0.21-0.54,0.55-0.86,1.12-0.86c0.58,0,0.92,0.32,1.14,0.86l2.01,5.1
					c0.03,0.08,0.06,0.18,0.06,0.28c0,0.42-0.38,0.69-0.79,0.69c-0.36,0-0.65-0.19-0.77-0.52l-0.31-0.83h-2.7l-0.3,0.83
					c-0.12,0.33-0.41,0.52-0.77,0.52c-0.41,0-0.79-0.27-0.79-0.69C422.22,298.48,422.24,298.38,422.27,298.3z M426.32,296.66
					l-0.87-2.38h-0.03l-0.88,2.38H426.32z"/>
				<path class="st0" d="M429.74,293.05c0-0.39,0.27-0.65,0.71-0.65h2.35c1.65,0,2.41,0.73,2.41,1.81c0,0.73-0.37,1.2-0.88,1.45
					v0.02c0.5,0.18,1.01,0.73,1.01,1.54c0,1.34-0.99,1.98-2.63,1.98h-2.27c-0.45,0-0.71-0.25-0.71-0.64V293.05z M432.59,295.18
					c0.62,0,1-0.29,1-0.8c0-0.51-0.37-0.79-1-0.79h-1.15c-0.04,0-0.07,0.02-0.07,0.06v1.47c0,0.04,0.02,0.06,0.07,0.06H432.59z
					 M431.44,298.02h1.24c0.67,0,1.04-0.32,1.04-0.86c0-0.51-0.37-0.84-1.04-0.84h-1.24c-0.04,0-0.07,0.02-0.07,0.06v1.58
					C431.38,298,431.4,298.02,431.44,298.02z"/>
				<path class="st0" d="M436.54,297.67c-0.17-0.48-0.21-0.86-0.21-1.86c0-1,0.04-1.38,0.21-1.86c0.4-1.1,1.44-1.65,2.76-1.65
					s2.36,0.55,2.76,1.65c0.17,0.48,0.21,0.86,0.21,1.86c0,1-0.04,1.38-0.21,1.86c-0.4,1.1-1.44,1.65-2.76,1.65
					S436.94,298.77,436.54,297.67z M440.49,297.28c0.09-0.25,0.12-0.59,0.12-1.47c0-0.88-0.03-1.22-0.12-1.47
					c-0.17-0.46-0.57-0.74-1.19-0.74c-0.62,0-1.02,0.28-1.19,0.74c-0.09,0.25-0.12,0.59-0.12,1.47c0,0.88,0.03,1.22,0.12,1.47
					c0.17,0.46,0.57,0.74,1.19,0.74C439.92,298.02,440.32,297.74,440.49,297.28z"/>
				<path class="st0" d="M447.6,298.81l-1.27-2.19h-1.11c-0.04,0-0.07,0.02-0.07,0.06v1.81c0,0.47-0.33,0.78-0.81,0.78
					c-0.48,0-0.82-0.31-0.82-0.78v-5.44c0-0.39,0.27-0.65,0.71-0.65h2.4c1.56,0,2.58,0.87,2.58,2.11c0,0.83-0.47,1.49-1.25,1.84
					l1.1,1.8c0.08,0.13,0.11,0.27,0.11,0.41c0,0.38-0.29,0.7-0.78,0.7C448.07,299.27,447.79,299.13,447.6,298.81z M447.58,294.52
					c0-0.52-0.4-0.85-1.02-0.85h-1.34c-0.04,0-0.07,0.02-0.07,0.06v1.57c0,0.04,0.02,0.06,0.07,0.06h1.34
					C447.18,295.36,447.58,295.03,447.58,294.52z"/>
				<path class="st0" d="M450.16,298.3l2.05-5.1c0.21-0.54,0.55-0.86,1.12-0.86c0.58,0,0.92,0.32,1.14,0.86l2.01,5.1
					c0.03,0.08,0.06,0.18,0.06,0.28c0,0.42-0.38,0.69-0.79,0.69c-0.36,0-0.65-0.19-0.77-0.52l-0.31-0.83h-2.7l-0.3,0.83
					c-0.12,0.33-0.41,0.52-0.77,0.52c-0.41,0-0.79-0.27-0.79-0.69C450.11,298.48,450.13,298.38,450.16,298.3z M454.21,296.66
					l-0.87-2.38h-0.03l-0.88,2.38H454.21z"/>
				<path class="st0" d="M458.4,298.49v-4.72c0-0.04-0.02-0.06-0.07-0.06h-1.28c-0.5,0-0.82-0.27-0.82-0.65
					c0-0.39,0.32-0.66,0.82-0.66h4.33c0.5,0,0.82,0.27,0.82,0.66c0,0.38-0.32,0.65-0.82,0.65h-1.28c-0.04,0-0.07,0.02-0.07,0.06
					v4.72c0,0.47-0.35,0.78-0.82,0.78C458.74,299.27,458.4,298.96,458.4,298.49z"/>
				<path class="st0" d="M462.79,297.67c-0.17-0.48-0.21-0.86-0.21-1.86c0-1,0.04-1.38,0.21-1.86c0.4-1.1,1.44-1.65,2.76-1.65
					s2.36,0.55,2.76,1.65c0.17,0.48,0.21,0.86,0.21,1.86c0,1-0.04,1.38-0.21,1.86c-0.4,1.1-1.44,1.65-2.76,1.65
					S463.19,298.77,462.79,297.67z M466.74,297.28c0.09-0.25,0.12-0.59,0.12-1.47c0-0.88-0.03-1.22-0.12-1.47
					c-0.17-0.46-0.57-0.74-1.19-0.74s-1.02,0.28-1.19,0.74c-0.09,0.25-0.12,0.59-0.12,1.47c0,0.88,0.03,1.22,0.12,1.47
					c0.17,0.46,0.57,0.74,1.19,0.74S466.58,297.74,466.74,297.28z"/>
				<path class="st0" d="M473.86,298.81l-1.27-2.19h-1.11c-0.04,0-0.07,0.02-0.07,0.06v1.81c0,0.47-0.33,0.78-0.81,0.78
					c-0.48,0-0.82-0.31-0.82-0.78v-5.44c0-0.39,0.27-0.65,0.71-0.65h2.4c1.56,0,2.58,0.87,2.58,2.11c0,0.83-0.47,1.49-1.25,1.84
					l1.1,1.8c0.08,0.13,0.11,0.27,0.11,0.41c0,0.38-0.29,0.7-0.78,0.7C474.32,299.27,474.04,299.13,473.86,298.81z M473.83,294.52
					c0-0.52-0.4-0.85-1.02-0.85h-1.34c-0.04,0-0.07,0.02-0.07,0.06v1.57c0,0.04,0.02,0.06,0.07,0.06h1.34
					C473.43,295.36,473.83,295.03,473.83,294.52z"/>
				<path class="st0" d="M476.72,293.12c0-0.47,0.35-0.78,0.82-0.78c0.47,0,0.81,0.31,0.81,0.78v5.37c0,0.47-0.35,0.78-0.81,0.78
					c-0.48,0-0.82-0.31-0.82-0.78V293.12z"/>
				<path class="st0" d="M479.81,297.67c-0.17-0.48-0.21-0.86-0.21-1.86c0-1,0.04-1.38,0.21-1.86c0.4-1.1,1.44-1.65,2.76-1.65
					s2.36,0.55,2.76,1.65c0.17,0.48,0.21,0.86,0.21,1.86c0,1-0.04,1.38-0.21,1.86c-0.4,1.1-1.44,1.65-2.76,1.65
					S480.21,298.77,479.81,297.67z M483.76,297.28c0.09-0.25,0.12-0.59,0.12-1.47c0-0.88-0.03-1.22-0.12-1.47
					c-0.17-0.46-0.57-0.74-1.19-0.74c-0.62,0-1.02,0.28-1.19,0.74c-0.09,0.25-0.12,0.59-0.12,1.47c0,0.88,0.03,1.22,0.12,1.47
					c0.17,0.46,0.57,0.74,1.19,0.74C483.19,298.02,483.59,297.74,483.76,297.28z"/>
			</g>
			<g>
				<g>
					<path class="st0" d="M416.45,304.22c0-0.54,0.36-0.88,0.9-0.88c0.49,0,0.76,0.24,1.01,0.76l1.61,3.29h0.04l1.58-3.29
						c0.24-0.52,0.51-0.76,1-0.76c0.55,0,0.89,0.34,0.89,0.88v5.34c0,0.45-0.3,0.71-0.75,0.71s-0.75-0.26-0.75-0.71v-3.29h-0.06
						l-1.17,2.44c-0.23,0.48-0.42,0.62-0.8,0.62s-0.57-0.14-0.8-0.62l-1.18-2.44h-0.06v3.29c0,0.45-0.31,0.71-0.73,0.71
						c-0.45,0-0.76-0.26-0.76-0.71V304.22z"/>
					<path class="st0" d="M424.94,304.05c0-0.39,0.27-0.65,0.71-0.65h3.67c0.46,0,0.76,0.27,0.76,0.64c0,0.36-0.3,0.63-0.76,0.63
						h-2.68c-0.04,0-0.07,0.02-0.07,0.06v1.35c0,0.04,0.02,0.06,0.07,0.06h2.15c0.46,0,0.75,0.26,0.75,0.63
						c0,0.37-0.29,0.63-0.75,0.63h-2.15c-0.04,0-0.07,0.02-0.07,0.06v1.41c0,0.04,0.02,0.06,0.07,0.06h2.68
						c0.46,0,0.76,0.27,0.76,0.63c0,0.37-0.3,0.64-0.76,0.64h-3.67c-0.45,0-0.71-0.26-0.71-0.65V304.05z M427.4,302.81
						c-0.29,0-0.56-0.21-0.56-0.49c0-0.17,0.06-0.32,0.19-0.45l0.57-0.57c0.16-0.15,0.3-0.21,0.51-0.21c0.31,0,0.59,0.2,0.59,0.5
						c0,0.17-0.06,0.32-0.19,0.44l-0.59,0.56C427.77,302.75,427.6,302.81,427.4,302.81z"/>
					<path class="st0" d="M431.23,304.05c0-0.39,0.27-0.65,0.71-0.65h1.79c1.61,0,2.62,0.46,3.02,1.57
						c0.14,0.39,0.22,0.86,0.22,1.83s-0.08,1.44-0.22,1.83c-0.4,1.11-1.4,1.57-3.02,1.57h-1.79c-0.45,0-0.71-0.25-0.71-0.64V304.05z
						 M432.93,308.9h0.76c0.76,0,1.3-0.23,1.49-0.77c0.08-0.23,0.13-0.63,0.13-1.32c0-0.69-0.06-1.09-0.13-1.32
						c-0.19-0.54-0.73-0.77-1.49-0.77h-0.76c-0.04,0-0.07,0.02-0.07,0.06v4.07C432.87,308.88,432.89,308.9,432.93,308.9z"/>
					<path class="st0" d="M438.22,304.12c0-0.47,0.35-0.78,0.82-0.78c0.47,0,0.81,0.31,0.81,0.78v5.37c0,0.47-0.35,0.78-0.81,0.78
						c-0.48,0-0.82-0.31-0.82-0.78V304.12z"/>
					<path class="st0" d="M441.1,306.81c0-1.04,0.06-1.39,0.21-1.84c0.4-1.11,1.38-1.67,2.7-1.67c1.14,0,1.97,0.47,2.35,1.08
						c0.09,0.14,0.14,0.28,0.14,0.44c0,0.39-0.33,0.66-0.75,0.66c-0.28,0-0.5-0.1-0.72-0.38c-0.28-0.34-0.55-0.5-1.02-0.5
						c-0.61,0-0.97,0.29-1.14,0.75c-0.09,0.25-0.12,0.49-0.12,1.46s0.03,1.21,0.12,1.46c0.17,0.46,0.52,0.75,1.14,0.75
						c0.48,0,0.75-0.16,1.02-0.5c0.22-0.28,0.45-0.38,0.72-0.38c0.41,0,0.75,0.27,0.75,0.66c0,0.16-0.06,0.3-0.14,0.44
						c-0.38,0.61-1.21,1.08-2.35,1.08c-1.32,0-2.3-0.56-2.7-1.67C441.16,308.2,441.1,307.85,441.1,306.81z"/>
					<path class="st0" d="M447.71,308.67c-0.17-0.48-0.21-0.86-0.21-1.86c0-1,0.04-1.38,0.21-1.86c0.4-1.1,1.44-1.65,2.76-1.65
						s2.36,0.55,2.76,1.65c0.17,0.48,0.21,0.86,0.21,1.86c0,1-0.04,1.38-0.21,1.86c-0.4,1.1-1.44,1.65-2.76,1.65
						S448.11,309.77,447.71,308.67z M451.66,308.28c0.09-0.25,0.12-0.59,0.12-1.47c0-0.88-0.03-1.22-0.12-1.47
						c-0.17-0.46-0.57-0.74-1.19-0.74c-0.62,0-1.02,0.28-1.19,0.74c-0.09,0.25-0.12,0.59-0.12,1.47c0,0.88,0.03,1.22,0.12,1.47
						c0.17,0.46,0.57,0.74,1.19,0.74C451.1,309.02,451.5,308.74,451.66,308.28z"/>
				</g>
			</g>
		</g>
	</g>
	<g>
		<g>
			<circle class="st1" cx="360.21" cy="286.88" r="3.26"/>
			<path class="st1" d="M363.26,310.21h-6.11v-12.23c0-3.38,2.74-6.11,6.11-6.11l0,0V310.21z"/>
		</g>
		<path class="st1" d="M408.2,305.32c-1.69,0-3.06-1.37-3.06-3.06v-16.81h-6.11v16.81l0,0c0,5.06,4.11,9.17,9.17,9.17
			c1.75,0,3.38-0.49,4.77-1.34L408.2,305.32z"/>
		<path class="st1" d="M387.11,291.87c-2.35,0-4.49,0.89-6.11,2.35c-1.62-1.46-3.76-2.35-6.11-2.35c-5.06,0-9.17,4.11-9.17,9.17
			v9.17h6.11v-9.17h0c0-1.69,1.37-3.06,3.06-3.06s3.06,1.37,3.06,3.06v9.17h6.11v-9.17h0c0-1.69,1.37-3.06,3.06-3.06
			s3.06,1.37,3.06,3.06v9.17h6.11v-9.17C396.28,295.98,392.17,291.87,387.11,291.87z"/>
	</g>
</g>
</svg>
